<svg xmlns="http://www.w3.org/2000/svg" xmlns:xlink="http://www.w3.org/1999/xlink" contentStyleType="text/css" data-diagram-type="SEQUENCE" height="635px" preserveAspectRatio="none" style="width:1657px;height:635px;background:#708090;" version="1.1" viewBox="0 0 1657 635" width="1657px" zoomAndPan="magnify"><?plantuml 1.2026.5?><defs/><g><rect fill="#708090" height="635" style="stroke:none;stroke-width:1;" width="1657" x="0" y="0"/><g class="title" data-source-line="11"><text fill="#FFFFFF" font-family="sans-serif" font-size="14" font-weight="700" lengthAdjust="spacing" textLength="215.9131" x="717.3308" y="28.5352">Provider Delete/Cleanup Flow</text></g><rect fill="#A9A9A9" height="193.1738" style="stroke:#000000;stroke-width:1.5;" width="647.96" x="993.6147" y="283.5293"/><g class="participant-lifeline" data-entity-uid="part1" data-qualified-name="Provider" data-source-line="14" id="part1-lifeline"><g><title>Provider</title><rect fill="#000000" fill-opacity="0.00000" height="432.3477" width="8" x="31.8496" y="119.9766"/><line style="stroke:#181818;stroke-width:0.5;stroke-dasharray:5,5;" x1="35" x2="35" y1="119.9766" y2="552.3242"/></g></g><g class="participant-lifeline" data-entity-uid="part2" data-qualified-name="api" data-source-line="15" id="part2-lifeline"><g><title>SDE Backend</title><rect fill="#000000" fill-opacity="0.00000" height="432.3477" width="8" x="343.1455" y="119.9766"/><line style="stroke:#181818;stroke-width:0.5;stroke-dasharray:5,5;" x1="346.7256" x2="346.7256" y1="119.9766" y2="552.3242"/></g></g><g class="participant-lifeline" data-entity-uid="part3" data-qualified-name="orch" data-source-line="16" id="part3-lifeline"><g><title>SubmodelOrchestartorService</title><rect fill="#000000" fill-opacity="0.00000" height="432.3477" width="8" x="852.4121" y="119.9766"/><line style="stroke:#181818;stroke-width:0.5;stroke-dasharray:5,5;" x1="856.2314" x2="856.2314" y1="119.9766" y2="552.3242"/></g></g><g class="participant-lifeline" data-entity-uid="part4" data-qualified-name="exec" data-source-line="17" id="part4-lifeline"><g><title>SubmodelExecutor</title><rect fill="#000000" fill-opacity="0.00000" height="432.3477" width="8" x="1069.9976" y="119.9766"/><line style="stroke:#181818;stroke-width:0.5;stroke-dasharray:5,5;" x1="1073.6147" x2="1073.6147" y1="119.9766" y2="552.3242"/></g></g><g class="participant-lifeline" data-entity-uid="part5" data-qualified-name="db" data-source-line="18" id="part5-lifeline"><g><title>PostgreSQL</title><rect fill="#000000" fill-opacity="0.00000" height="432.3477" width="8" x="1309.8569" y="119.9766"/><line style="stroke:#181818;stroke-width:0.5;stroke-dasharray:5,5;" x1="1313.4321" x2="1313.4321" y1="119.9766" y2="552.3242"/></g></g><g class="participant-lifeline" data-entity-uid="part6" data-qualified-name="edc" data-source-line="19" id="part6-lifeline"><g><title>EDC Provider</title><rect fill="#000000" fill-opacity="0.00000" height="432.3477" width="8" x="1412.2266" y="119.9766"/><line style="stroke:#181818;stroke-width:0.5;stroke-dasharray:5,5;" x1="1415.2817" x2="1415.2817" y1="119.9766" y2="552.3242"/></g></g><g class="participant-lifeline" data-entity-uid="part7" data-qualified-name="dtr" data-source-line="20" id="part7-lifeline"><g><title>Digital Twin Registry</title><rect fill="#000000" fill-opacity="0.00000" height="432.3477" width="8" x="1550.373" y="119.9766"/><line style="stroke:#181818;stroke-width:0.5;stroke-dasharray:5,5;" x1="1554.1714" x2="1554.1714" y1="119.9766" y2="552.3242"/></g></g><g class="participant participant-head" data-entity-uid="part1" data-qualified-name="Provider" data-source-line="14" id="part1-head"><text fill="#FFFFFF" font-family="sans-serif" font-size="14" lengthAdjust="spacing" textLength="55.6992" x="5" y="117.0234">Provider</text><ellipse cx="35.8496" cy="58.9883" fill="#E2E2F0" rx="16" ry="16" style="stroke:#181818;stroke-width:0.5;"/><path d="M35.8496,78.9883 C39.8496,78.9883 42.8496,78.9883 46.8496,74.9883 C54.8496,74.9883 62.8496,82.9883 62.8496,90.9883 L62.8496,94.9883 C62.8496,98.9883 58.8496,102.9883 54.8496,102.9883 L16.8496,102.9883 C12.8496,102.9883 8.8496,98.9883 8.8496,94.9883 L8.8496,90.9883 C8.8496,82.9883 16.8496,74.9883 24.8496,74.9883 C28.8496,78.9883 31.8496,78.9883 35.8496,78.9883" fill="#E2E2F0" style="stroke:#181818;stroke-width:0.5;"/></g><g class="participant participant-tail" data-entity-uid="part1" data-qualified-name="Provider" data-source-line="14" id="part1-tail"><text fill="#FFFFFF" font-family="sans-serif" font-size="14" lengthAdjust="spacing" textLength="55.6992" x="5" y="564.8594">Provider</text><ellipse cx="35.8496" cy="584.3125" fill="#E2E2F0" rx="16" ry="16" style="stroke:#181818;stroke-width:0.5;"/><path d="M35.8496,604.3125 C39.8496,604.3125 42.8496,604.3125 46.8496,600.3125 C54.8496,600.3125 62.8496,608.3125 62.8496,616.3125 L62.8496,620.3125 C62.8496,624.3125 58.8496,628.3125 54.8496,628.3125 L16.8496,628.3125 C12.8496,628.3125 8.8496,624.3125 8.8496,620.3125 L8.8496,616.3125 C8.8496,608.3125 16.8496,600.3125 24.8496,600.3125 C28.8496,604.3125 31.8496,604.3125 35.8496,604.3125" fill="#E2E2F0" style="stroke:#181818;stroke-width:0.5;"/></g><g class="participant participant-head" data-entity-uid="part2" data-qualified-name="api" data-source-line="15" id="part2-head"><rect fill="#E2E2F0" height="46.9766" rx="2.5" ry="2.5" style="stroke:#181818;stroke-width:0.5;" width="200.8398" x="246.7256" y="72"/><text fill="#000000" font-family="sans-serif" font-size="14" lengthAdjust="spacing" textLength="86.4814" x="303.9048" y="92.5352">SDE Backend</text><text fill="#000000" font-family="sans-serif" font-size="14" lengthAdjust="spacing" textLength="186.8398" x="253.7256" y="109.0234">SubmodelProcessController</text></g><g class="participant participant-tail" data-entity-uid="part2" data-qualified-name="api" data-source-line="15" id="part2-tail"><rect fill="#E2E2F0" height="46.9766" rx="2.5" ry="2.5" style="stroke:#181818;stroke-width:0.5;" width="200.8398" x="246.7256" y="551.3242"/><text fill="#000000" font-family="sans-serif" font-size="14" lengthAdjust="spacing" textLength="86.4814" x="303.9048" y="571.8594">SDE Backend</text><text fill="#000000" font-family="sans-serif" font-size="14" lengthAdjust="spacing" textLength="186.8398" x="253.7256" y="588.3477">SubmodelProcessController</text></g><g class="participant participant-head" data-entity-uid="part3" data-qualified-name="orch" data-source-line="16" id="part3-head"><rect fill="#E2E2F0" height="30.4883" rx="2.5" ry="2.5" style="stroke:#181818;stroke-width:0.5;" width="214.3613" x="749.2314" y="88.4883"/><text fill="#000000" font-family="sans-serif" font-size="14" lengthAdjust="spacing" textLength="200.3613" x="756.2314" y="109.0234">SubmodelOrchestartorService</text></g><g class="participant participant-tail" data-entity-uid="part3" data-qualified-name="orch" data-source-line="16" id="part3-tail"><rect fill="#E2E2F0" height="30.4883" rx="2.5" ry="2.5" style="stroke:#181818;stroke-width:0.5;" width="214.3613" x="749.2314" y="551.3242"/><text fill="#000000" font-family="sans-serif" font-size="14" lengthAdjust="spacing" textLength="200.3613" x="756.2314" y="571.8594">SubmodelOrchestartorService</text></g><g class="participant participant-head" data-entity-uid="part4" data-qualified-name="exec" data-source-line="17" id="part4-head"><rect fill="#E2E2F0" height="30.4883" rx="2.5" ry="2.5" style="stroke:#181818;stroke-width:0.5;" width="140.7656" x="1003.6147" y="88.4883"/><text fill="#000000" font-family="sans-serif" font-size="14" lengthAdjust="spacing" textLength="126.7656" x="1010.6147" y="109.0234">SubmodelExecutor</text></g><g class="participant participant-tail" data-entity-uid="part4" data-qualified-name="exec" data-source-line="17" id="part4-tail"><rect fill="#E2E2F0" height="30.4883" rx="2.5" ry="2.5" style="stroke:#181818;stroke-width:0.5;" width="140.7656" x="1003.6147" y="551.3242"/><text fill="#000000" font-family="sans-serif" font-size="14" lengthAdjust="spacing" textLength="126.7656" x="1010.6147" y="571.8594">SubmodelExecutor</text></g><g class="participant participant-head" data-entity-uid="part5" data-qualified-name="db" data-source-line="18" id="part5-head"><text fill="#FFFFFF" font-family="sans-serif" font-size="14" lengthAdjust="spacing" textLength="76.8496" x="1272.4321" y="117.0234">PostgreSQL</text><path d="M1295.8569,67.4883 C1295.8569,57.4883 1313.8569,57.4883 1313.8569,57.4883 C1313.8569,57.4883 1331.8569,57.4883 1331.8569,67.4883 L1331.8569,93.4883 C1331.8569,103.4883 1313.8569,103.4883 1313.8569,103.4883 C1313.8569,103.4883 1295.8569,103.4883 1295.8569,93.4883 L1295.8569,67.4883" fill="#E2E2F0" style="stroke:#181818;stroke-width:0.5;"/><path d="M1295.8569,67.4883 C1295.8569,77.4883 1313.8569,77.4883 1313.8569,77.4883 C1313.8569,77.4883 1331.8569,77.4883 1331.8569,67.4883" fill="none" style="stroke:#181818;stroke-width:0.5;"/></g><g class="participant participant-tail" data-entity-uid="part5" data-qualified-name="db" data-source-line="18" id="part5-tail"><text fill="#FFFFFF" font-family="sans-serif" font-size="14" lengthAdjust="spacing" textLength="76.8496" x="1272.4321" y="564.8594">PostgreSQL</text><path d="M1295.8569,577.8125 C1295.8569,567.8125 1313.8569,567.8125 1313.8569,567.8125 C1313.8569,567.8125 1331.8569,567.8125 1331.8569,577.8125 L1331.8569,603.8125 C1331.8569,613.8125 1313.8569,613.8125 1313.8569,613.8125 C1313.8569,613.8125 1295.8569,613.8125 1295.8569,603.8125 L1295.8569,577.8125" fill="#E2E2F0" style="stroke:#181818;stroke-width:0.5;"/><path d="M1295.8569,577.8125 C1295.8569,587.8125 1313.8569,587.8125 1313.8569,587.8125 C1313.8569,587.8125 1331.8569,587.8125 1331.8569,577.8125" fill="none" style="stroke:#181818;stroke-width:0.5;"/></g><g class="participant participant-head" data-entity-uid="part6" data-qualified-name="edc" data-source-line="19" id="part6-head"><rect fill="#E2E2F0" height="30.4883" rx="2.5" ry="2.5" style="stroke:#181818;stroke-width:0.5;" width="101.8896" x="1365.2817" y="88.4883"/><text fill="#000000" font-family="sans-serif" font-size="14" lengthAdjust="spacing" textLength="87.8896" x="1372.2817" y="109.0234">EDC Provider</text></g><g class="participant participant-tail" data-entity-uid="part6" data-qualified-name="edc" data-source-line="19" id="part6-tail"><rect fill="#E2E2F0" height="30.4883" rx="2.5" ry="2.5" style="stroke:#181818;stroke-width:0.5;" width="101.8896" x="1365.2817" y="551.3242"/><text fill="#000000" font-family="sans-serif" font-size="14" lengthAdjust="spacing" textLength="87.8896" x="1372.2817" y="571.8594">EDC Provider</text></g><g class="participant participant-head" data-entity-uid="part7" data-qualified-name="dtr" data-source-line="20" id="part7-head"><rect fill="#E2E2F0" height="30.4883" rx="2.5" ry="2.5" style="stroke:#181818;stroke-width:0.5;" width="154.4033" x="1477.1714" y="88.4883"/><text fill="#000000" font-family="sans-serif" font-size="14" lengthAdjust="spacing" textLength="140.4033" x="1484.1714" y="109.0234">Digital Twin Registry</text></g><g class="participant participant-tail" data-entity-uid="part7" data-qualified-name="dtr" data-source-line="20" id="part7-tail"><rect fill="#E2E2F0" height="30.4883" rx="2.5" ry="2.5" style="stroke:#181818;stroke-width:0.5;" width="154.4033" x="1477.1714" y="551.3242"/><text fill="#000000" font-family="sans-serif" font-size="14" lengthAdjust="spacing" textLength="140.4033" x="1484.1714" y="571.8594">Digital Twin Registry</text></g><g class="message" data-entity-1="part1" data-entity-2="part2" data-source-line="22" id="msg1"><polygon fill="#181818" points="335.1455,147.2871,345.1455,151.2871,335.1455,155.2871,339.1455,151.2871" style="stroke:#181818;stroke-width:1;stroke-linejoin:miter;stroke-miterlimit:10;"/><line style="stroke:#181818;stroke-width:1;" x1="35.8496" x2="341.1455" y1="151.2871" y2="151.2871"/><text fill="#FFFFFF" font-family="sans-serif" font-size="13" font-weight="700" lengthAdjust="spacing" textLength="8.5757" x="42.8496" y="146.5449">1</text><text fill="#FFFFFF" font-family="sans-serif" font-size="13" lengthAdjust="spacing" textLength="274.7202" x="55.4253" y="146.5449">DELETE /api/{submodel}/delete/{processId}</text></g><g class="message" data-entity-1="part2" data-entity-2="part3" data-source-line="23" id="msg2"><polygon fill="#181818" points="844.4121,176.5977,854.4121,180.5977,844.4121,184.5977,848.4121,180.5977" style="stroke:#181818;stroke-width:1;stroke-linejoin:miter;stroke-miterlimit:10;"/><line style="stroke:#181818;stroke-width:1;" x1="347.1455" x2="850.4121" y1="180.5977" y2="180.5977"/><text fill="#FFFFFF" font-family="sans-serif" font-size="13" font-weight="700" lengthAdjust="spacing" textLength="8.5757" x="354.1455" y="175.8555">2</text><text fill="#FFFFFF" font-family="sans-serif" font-size="13" lengthAdjust="spacing" textLength="472.6909" x="366.7212" y="175.8555">deleteSubmodelDigitalTwinsAndEDC(refProcessId, delProcessId, submodel)</text></g><g class="message" data-entity-1="part3" data-entity-2="part5" data-source-line="24" id="msg3"><polygon fill="#181818" points="1301.8569,205.9082,1311.8569,209.9082,1301.8569,213.9082,1305.8569,209.9082" style="stroke:#181818;stroke-width:1;stroke-linejoin:miter;stroke-miterlimit:10;"/><line style="stroke:#181818;stroke-width:1;" x1="856.4121" x2="1307.8569" y1="209.9082" y2="209.9082"/><text fill="#FFFFFF" font-family="sans-serif" font-size="13" font-weight="700" lengthAdjust="spacing" textLength="8.5757" x="863.4121" y="205.166">3</text><text fill="#FFFFFF" font-family="sans-serif" font-size="13" lengthAdjust="spacing" textLength="173.5386" x="875.9878" y="205.166">read original ProcessReport</text></g><g class="message" data-entity-1="part3" data-entity-2="part4" data-source-line="25" id="msg4"><polygon fill="#181818" points="1061.9976,235.2188,1071.9976,239.2188,1061.9976,243.2188,1065.9976,239.2188" style="stroke:#181818;stroke-width:1;stroke-linejoin:miter;stroke-miterlimit:10;"/><line style="stroke:#181818;stroke-width:1;" x1="856.4121" x2="1067.9976" y1="239.2188" y2="239.2188"/><text fill="#FFFFFF" font-family="sans-serif" font-size="13" font-weight="700" lengthAdjust="spacing" textLength="8.5757" x="863.4121" y="234.4766">4</text><text fill="#FFFFFF" font-family="sans-serif" font-size="13" lengthAdjust="spacing" textLength="181.0098" x="875.9878" y="234.4766">read created twins for delete</text></g><g class="message" data-entity-1="part3" data-entity-2="part5" data-source-line="26" id="msg5"><polygon fill="#181818" points="1301.8569,264.5293,1311.8569,268.5293,1301.8569,272.5293,1305.8569,268.5293" style="stroke:#181818;stroke-width:1;stroke-linejoin:miter;stroke-miterlimit:10;"/><line style="stroke:#181818;stroke-width:1;" x1="856.4121" x2="1307.8569" y1="268.5293" y2="268.5293"/><text fill="#FFFFFF" font-family="sans-serif" font-size="13" font-weight="700" lengthAdjust="spacing" textLength="8.5757" x="863.4121" y="263.7871">5</text><text fill="#FFFFFF" font-family="sans-serif" font-size="13" lengthAdjust="spacing" textLength="165.0645" x="875.9878" y="263.7871">start delete ProcessReport</text></g><path d="M993.6147,283.5293 L1068.0615,283.5293 L1068.0615,290.8398 L1058.0615,300.8398 L993.6147,300.8398 L993.6147,283.5293" fill="#696969" style="stroke:#000000;stroke-width:1.5;"/><rect fill="none" height="193.1738" style="stroke:#000000;stroke-width:1.5;" width="647.96" x="993.6147" y="283.5293"/><text fill="#FFFFFF" font-family="sans-serif" font-size="13" font-weight="700" lengthAdjust="spacing" textLength="29.4468" x="1008.6147" y="297.0977">loop</text><text fill="#000000" font-family="sans-serif" font-size="11" font-weight="700" lengthAdjust="spacing" textLength="114.4473" x="1083.0615" y="296.1641">[each stored record]</text><g class="message" data-entity-1="part4" data-entity-2="part6" data-source-line="29" id="msg6"><polygon fill="#181818" points="1404.2266,318.1504,1414.2266,322.1504,1404.2266,326.1504,1408.2266,322.1504" style="stroke:#181818;stroke-width:1;stroke-linejoin:miter;stroke-miterlimit:10;"/><line style="stroke:#181818;stroke-width:1;" x1="1073.9976" x2="1410.2266" y1="322.1504" y2="322.1504"/><text fill="#FFFFFF" font-family="sans-serif" font-size="13" font-weight="700" lengthAdjust="spacing" textLength="8.5757" x="1080.9976" y="317.4082">6</text><text fill="#FFFFFF" font-family="sans-serif" font-size="13" lengthAdjust="spacing" textLength="158.812" x="1093.5732" y="317.4082">delete contract definition</text></g><g class="message" data-entity-1="part4" data-entity-2="part6" data-source-line="30" id="msg7"><polygon fill="#181818" points="1404.2266,347.4609,1414.2266,351.4609,1404.2266,355.4609,1408.2266,351.4609" style="stroke:#181818;stroke-width:1;stroke-linejoin:miter;stroke-miterlimit:10;"/><line style="stroke:#181818;stroke-width:1;" x1="1073.9976" x2="1410.2266" y1="351.4609" y2="351.4609"/><text fill="#FFFFFF" font-family="sans-serif" font-size="13" font-weight="700" lengthAdjust="spacing" textLength="8.5757" x="1080.9976" y="346.7188">7</text><text fill="#FFFFFF" font-family="sans-serif" font-size="13" lengthAdjust="spacing" textLength="124.8838" x="1093.5732" y="346.7188">delete access policy</text></g><g class="message" data-entity-1="part4" data-entity-2="part6" data-source-line="31" id="msg8"><polygon fill="#181818" points="1404.2266,376.7715,1414.2266,380.7715,1404.2266,384.7715,1408.2266,380.7715" style="stroke:#181818;stroke-width:1;stroke-linejoin:miter;stroke-miterlimit:10;"/><line style="stroke:#181818;stroke-width:1;" x1="1073.9976" x2="1410.2266" y1="380.7715" y2="380.7715"/><text fill="#FFFFFF" font-family="sans-serif" font-size="13" font-weight="700" lengthAdjust="spacing" textLength="8.5757" x="1080.9976" y="376.0293">8</text><text fill="#FFFFFF" font-family="sans-serif" font-size="13" lengthAdjust="spacing" textLength="121.1133" x="1093.5732" y="376.0293">delete usage policy</text></g><g class="message" data-entity-1="part4" data-entity-2="part6" data-source-line="32" id="msg9"><polygon fill="#181818" points="1404.2266,406.082,1414.2266,410.082,1404.2266,414.082,1408.2266,410.082" style="stroke:#181818;stroke-width:1;stroke-linejoin:miter;stroke-miterlimit:10;"/><line style="stroke:#181818;stroke-width:1;" x1="1073.9976" x2="1410.2266" y1="410.082" y2="410.082"/><text fill="#FFFFFF" font-family="sans-serif" font-size="13" font-weight="700" lengthAdjust="spacing" textLength="8.5757" x="1080.9976" y="405.3398">9</text><text fill="#FFFFFF" font-family="sans-serif" font-size="13" lengthAdjust="spacing" textLength="75.1816" x="1093.5732" y="405.3398">delete asset</text></g><g class="message" data-entity-1="part4" data-entity-2="part7" data-source-line="33" id="msg10"><polygon fill="#181818" points="1542.373,435.3926,1552.373,439.3926,1542.373,443.3926,1546.373,439.3926" style="stroke:#181818;stroke-width:1;stroke-linejoin:miter;stroke-miterlimit:10;"/><line style="stroke:#181818;stroke-width:1;" x1="1073.9976" x2="1548.373" y1="439.3926" y2="439.3926"/><text fill="#FFFFFF" font-family="sans-serif" font-size="13" font-weight="700" lengthAdjust="spacing" textLength="17.1514" x="1080.9976" y="434.6504">10</text><text fill="#FFFFFF" font-family="sans-serif" font-size="13" lengthAdjust="spacing" textLength="240.9761" x="1102.1489" y="434.6504">delete submodel descriptor from shell</text></g><g class="message" data-entity-1="part4" data-entity-2="part5" data-source-line="34" id="msg11"><polygon fill="#181818" points="1301.8569,464.7031,1311.8569,468.7031,1301.8569,472.7031,1305.8569,468.7031" style="stroke:#181818;stroke-width:1;stroke-linejoin:miter;stroke-miterlimit:10;"/><line style="stroke:#181818;stroke-width:1;" x1="1073.9976" x2="1307.8569" y1="468.7031" y2="468.7031"/><text fill="#FFFFFF" font-family="sans-serif" font-size="13" font-weight="700" lengthAdjust="spacing" textLength="17.1514" x="1080.9976" y="463.9609">11</text><text fill="#FFFFFF" font-family="sans-serif" font-size="13" lengthAdjust="spacing" textLength="194.708" x="1102.1489" y="463.9609">mark submodel row as deleted</text></g><g class="message" data-entity-1="part3" data-entity-2="part5" data-source-line="37" id="msg12"><polygon fill="#181818" points="1301.8569,501.0137,1311.8569,505.0137,1301.8569,509.0137,1305.8569,505.0137" style="stroke:#181818;stroke-width:1;stroke-linejoin:miter;stroke-miterlimit:10;"/><line style="stroke:#181818;stroke-width:1;" x1="856.4121" x2="1307.8569" y1="505.0137" y2="505.0137"/><text fill="#FFFFFF" font-family="sans-serif" font-size="13" font-weight="700" lengthAdjust="spacing" textLength="17.1514" x="863.4121" y="500.2715">12</text><text fill="#FFFFFF" font-family="sans-serif" font-size="13" lengthAdjust="spacing" textLength="171.2725" x="884.5635" y="500.2715">finish delete ProcessReport</text></g><g class="message" data-entity-1="part2" data-entity-2="part1" data-source-line="38" id="msg13"><polygon fill="#181818" points="46.8496,530.3242,36.8496,534.3242,46.8496,538.3242,42.8496,534.3242" style="stroke:#181818;stroke-width:1;stroke-linejoin:miter;stroke-miterlimit:10;"/><line style="stroke:#181818;stroke-width:1;stroke-dasharray:2,2;" x1="40.8496" x2="346.1455" y1="534.3242" y2="534.3242"/><text fill="#FFFFFF" font-family="sans-serif" font-size="13" font-weight="700" lengthAdjust="spacing" textLength="17.1514" x="52.8496" y="529.582">13</text><text fill="#FFFFFF" font-family="sans-serif" font-size="13" lengthAdjust="spacing" textLength="193.0068" x="74.001" y="529.582">200 { processId: delProcessId }</text></g><?plantuml-src VLDDRzim3BthLn3fPGCsfDZHA3gqYLiCAB2iwN4NMM8I8RBeIN8p8yX_7-MlVA3PnG3Dznx9H-eknCRYlV144VO2u8bSd94b3pVV2olLDjjjJ4Hn47VJ7XksnbNIonAaYkINwI_87GOgyIIvn3yrEeNFdkhgADkANeCzacuUER_cmEcEC9T---onkSgvn9lo0dw9k5bQ6Pai6n5DvEONdjwDHkQYnOZJcKNfwWgUBEs4h2EvkYpG2z4EFC85oqUZJ2LTXCbodhULqEdVRbaN9Mcq35KOmep7zsGj-Wd80B8o5zmU_jEh3OR8AVOL_RjHs1A8_t_CoF-YuWOxNUH0Q1bb8GF2P44XhZqkVxsqMLsSI-JpsJXAHzVg734tQnEbXRUTSV2AQnEYRpgjo6wCjdszJoDbCCzVyhSSfXnCzw7ly33LdQlxgZFZXpu8HYHMcYk3BZzCr1TDDSE3qzpb9u-hnS3z0aTRKpIK-IoIM1BLHGOUfMPrbdBSVmz_nOfy7779hHwf-1jHGqn5OSKxxdewqsptqYSk98KbgW0bWmClWvKyAlAQ7rIgqbRJQfWKL3e7lYMELyQPQCXTGKgLga15rgZc2gOESet_XyWGC9xaU7rZRZ2Guw2ygTA5hpoL43PexIc9FIZvCHuPddRjCRH2Ml3bYpF7qd1Xyx5bxGKmRZYY3BxTti8UnYF9pXODXty0?></g></svg>